<svg xmlns="http://www.w3.org/2000/svg" width="64" height="64" viewBox="0 0 64 64">
  <rect width="64" height="64" fill="#f5f5f5" rx="8" />
  
  <!-- Realistic landscape outline -->
  <!-- Mountains -->
  <path d="M8 44 L18 24 L24 32 L32 16 L42 28 L54 20 L56 44 L8 44" fill="none" stroke="#333" stroke-width="1.5" />
  
  <!-- Details -->
  <path d="M12 44 Q16 38 20 44" fill="none" stroke="#333" stroke-width="0.75" /> <!-- Hill -->
  <path d="M28 44 Q36 36 40 44" fill="none" stroke="#333" stroke-width="0.75" /> <!-- Larger hill -->
  
  <!-- Tree -->
  <path d="M48 44 L48 35" fill="none" stroke="#333" stroke-width="1.2" /> <!-- Trunk -->
  <path d="M48 35 Q44 32 46 28 Q48 26 50 28 Q52 32 48 35" fill="none" stroke="#333" stroke-width="0.75" /> <!-- Foliage -->
  
  <!-- Sun -->
  <circle cx="18" cy="18" r="5" fill="none" stroke="#333" stroke-width="1" />
  <path d="M13 13 L11 11" stroke="#333" stroke-width="0.75" />
  <path d="M18 13 L18 8" stroke="#333" stroke-width="0.75" />
  <path d="M23 13 L25 11" stroke="#333" stroke-width="0.75" />
  
  <text x="32" y="56" text-anchor="middle" font-family="Arial" font-size="8" fill="#333">Realistic</text>
</svg> 